<svg class="sprite" xmlns="http://www.w3.org/2000/svg" xmlns:xlink="http://www.w3.org/1999/xlink"><symbol viewBox="0 0 20 20" id="Github" xmlns="http://www.w3.org/2000/svg"><path d="M10 0c5.523 0 10 4.59 10 10.253 0 4.529-2.862 8.371-6.833 9.728-.507.101-.687-.219-.687-.492 0-.338.012-1.442.012-2.814 0-.956-.32-1.58-.679-1.898 2.227-.254 4.567-1.121 4.567-5.059 0-1.12-.388-2.034-1.03-2.752.104-.259.447-1.302-.098-2.714 0 0-.838-.275-2.747 1.051A9.396 9.396 0 0 0 10 4.958a9.375 9.375 0 0 0-2.503.345C5.586 3.977 4.746 4.252 4.746 4.252c-.543 1.412-.2 2.455-.097 2.714-.639.718-1.03 1.632-1.03 2.752 0 3.928 2.335 4.808 4.556 5.067-.286.256-.545.708-.635 1.371-.57.262-2.018.715-2.91-.852 0 0-.529-.985-1.533-1.057 0 0-.975-.013-.068.623 0 0 .655.315 1.11 1.5 0 0 .587 1.83 3.369 1.21.005.857.014 1.665.014 1.909 0 .271-.184.588-.683.493C2.865 18.627 0 14.783 0 10.253 0 4.59 4.478 0 10 0" fill-rule="evenodd"/></symbol><symbol viewBox="0 0 20 20" id="Telegram" xmlns="http://www.w3.org/2000/svg"><path d="M10 0c5.523 0 10 4.477 10 10s-4.477 10-10 10S0 15.523 0 10 4.477 0 10 0Zm4.442 6c-.381.007-.966.207-3.779 1.362a485.41 485.41 0 0 0-5.907 2.512c-.48.189-.73.373-.753.553-.044.346.46.453 1.094.657.517.166 1.213.36 1.575.368.328.007.694-.127 1.098-.4 2.76-1.84 4.183-2.769 4.273-2.789.063-.014.15-.032.21.02.059.052.053.15.046.177-.05.211-2.641 2.538-2.79 2.691l-.072.072c-.55.543-1.105.898-.147 1.521.866.563 1.37.922 2.26 1.5.57.368 1.017.805 1.605.752.271-.025.55-.276.693-1.026.335-1.77.995-5.608 1.147-7.19a1.742 1.742 0 0 0-.017-.393.42.42 0 0 0-.144-.27c-.121-.098-.309-.118-.392-.117Z"/></symbol><symbol viewBox="0 0 504.4 504.4" xml:space="preserve" id="Whatsapp" xmlns="http://www.w3.org/2000/svg"><path d="M254.8 119.4c-71.6 0-129.6 57.6-129.6 128.8 0 28 9.2 54.4 24.8 75.6l-16.4 48 50-16c20.4 13.6 45.2 21.2 71.6 21.2 71.6 0 130-57.6 130-128.8-.4-71.2-58.8-128.8-130.4-128.8zm76 182c-3.2 8.8-18.8 17.2-25.6 18s-6.8 5.6-45.6-9.2c-38.4-15.2-62.8-54-64.8-56.8-2-2.4-15.6-20.4-15.6-38.8s9.6-27.6 13.2-31.2c3.6-3.6 7.6-4.8 10-4.8 2.4 0 5.2.4 7.2.4 2.4 0 5.2-1.2 8.4 6.4 3.2 7.6 10.8 26 11.6 28s1.6 4 .4 6.4c-1.2 2.4-2 4-3.6 6.4-2 2-4 4.8-5.6 6.4-2 2-4 4-1.6 7.6 2.4 3.6 10 16 21.2 26 14.4 12.8 26.8 16.8 30.4 18.8 3.6 2 6 1.6 8-.8 2.4-2.4 9.6-10.8 12-14.8 2.4-3.6 5.2-3.2 8.4-2 3.6 1.2 22 10.4 26 12.4 3.6 2 6.4 2.8 7.2 4.4 1.2.8 1.2 8.4-1.6 17.2z"/><path d="M377.6.2H126.4C56.8.2 0 57 0 126.6v251.6c0 69.2 56.8 126 126.4 126H378c69.6 0 126.4-56.8 126.4-126.4V126.6C504 57 447.2.2 377.6.2zM254.8 401.4c-27.2 0-52.4-6.8-74.8-19.2l-85.6 27.2 28-82c-14-23.2-22-50.4-22-79.2 0-84.8 69.2-153.2 154.4-153.2s154.4 68.4 154.4 153.2S340 401.4 254.8 401.4z"/></symbol></svg>