<svg width="526" height="150" viewBox="0 0 526 150" fill="none" xmlns="http://www.w3.org/2000/svg">
<circle cx="75" cy="75" r="73" stroke="white" stroke-width="4"/>
<path d="M28.19 115.09C23.9367 115.09 20.0867 114.32 16.64 112.78C13.2667 111.24 10.5167 109.15 8.39 106.51C5.09 102.403 3.44 97.3067 3.44 91.22C3.44 86.8933 4.24667 82.97 5.86 79.45C9.08667 71.97 14.44 65.5533 21.92 60.2C29.3267 54.92 36.55 52.28 43.59 52.28C47.99 52.28 51.6933 53.38 54.7 55.58C57.7067 57.78 59.21 60.9333 59.21 65.04C59.21 67.9 58.44 70.6867 56.9 73.4C55.4333 76.04 53.5633 77.8 51.29 78.68C51.1433 78.68 50.9967 78.6433 50.85 78.57C50.7033 78.4233 50.6667 78.3133 50.74 78.24C51.9867 76.48 53.1233 74.6467 54.15 72.74C55.1767 70.76 55.69 68.5967 55.69 66.25C55.69 63.9767 54.9933 61.9967 53.6 60.31C52.28 58.55 50.5567 57.1933 48.43 56.24C46.3767 55.2133 44.25 54.7 42.05 54.7C39.0433 54.7 36.0367 55.3967 33.03 56.79C30.0233 58.1833 27.0167 60.0167 24.01 62.29C17.5567 67.35 13.1567 73.84 10.81 81.76C9.71 85.28 9.16 88.69 9.16 91.99C9.16 98.2967 11.3233 103.393 15.65 107.28C17.41 108.82 19.28 109.993 21.26 110.8C23.24 111.68 25.3667 112.12 27.64 112.12C35.0467 112.12 43.1133 109.407 51.84 103.98C60.64 98.6267 69.9533 90.4867 79.78 79.56L69.77 79.78C66.6167 79.7067 65.04 79.0467 65.04 77.8C65.04 76.3333 66.58 74.7933 69.66 73.18C70.9067 72.74 71.75 72.52 72.19 72.52C72.85 72.52 73.2533 73.0333 73.4 74.06C73.5467 75.0133 73.8767 75.5633 74.39 75.71C75.6367 75.7833 76.9567 75.8567 78.35 75.93C79.7433 75.93 81.2467 75.93 82.86 75.93C89.7533 67.4967 95.9867 60.4567 101.56 54.81C107.207 49.1633 112.45 44.6167 117.29 41.17C122.203 37.7233 126.933 35.1567 131.48 33.47C132.14 33.1767 132.947 33.03 133.9 33.03C136.393 33.03 137.64 33.8 137.64 35.34C137.64 36 137.273 36.6967 136.54 37.43C126.713 47.8433 119.527 60.2733 114.98 74.72C116.08 74.6467 117.107 74.5733 118.06 74.5C119.087 74.4267 120.04 74.3167 120.92 74.17C121.287 74.0967 121.58 74.06 121.8 74.06C122.093 74.06 122.387 74.06 122.68 74.06C124 74.06 124.66 74.2433 124.66 74.61C124.66 75.7833 121.213 76.6267 114.32 77.14C112.487 83.1533 111.57 88.7633 111.57 93.97C111.57 98.81 112.303 101.633 113.77 102.44C113.917 102.513 114.063 102.55 114.21 102.55C114.357 102.623 114.503 102.66 114.65 102.66C115.31 102.66 115.97 102.33 116.63 101.67C117.363 100.937 117.73 100.57 117.73 100.57C117.877 100.717 117.95 100.973 117.95 101.34C117.95 102.807 117.473 104.2 116.52 105.52C115.64 106.84 114.577 107.5 113.33 107.5C112.523 107.5 111.717 107.17 110.91 106.51C108.637 104.677 107.5 101.193 107.5 96.06C107.5 95.4733 107.5 94.8867 107.5 94.3C107.5 93.64 107.537 93.0167 107.61 92.43C107.757 90.3033 108.013 87.9933 108.38 85.5C108.82 83.0067 109.37 80.2933 110.03 77.36L83.41 79.23C73.1433 91.0367 63.4267 99.9467 54.26 105.96C45.0933 112.047 36.4033 115.09 28.19 115.09ZM86.38 75.93C89.1667 75.8567 92.5767 75.7467 96.61 75.6C100.717 75.4533 105.373 75.27 110.58 75.05C114.027 63.17 117.547 53.93 121.14 47.33C121.727 46.1567 122.35 45.02 123.01 43.92C123.743 42.82 124.477 41.7567 125.21 40.73C123.377 41.3167 121.323 42.3433 119.05 43.81C116.777 45.2033 114.613 46.7067 112.56 48.32C110.507 49.9333 108.82 51.3267 107.5 52.5C103.687 55.9467 100.057 59.6867 96.61 63.72C93.2367 67.68 89.8267 71.75 86.38 75.93Z" fill="white"/>
<path d="M187.282 79.902C185.039 79.902 183.009 79.496 181.192 78.684C179.413 77.872 177.963 76.77 176.842 75.378C175.102 73.2127 174.232 70.5253 174.232 67.316C174.232 65.0347 174.657 62.966 175.508 61.11C177.209 57.166 180.032 53.7827 183.976 50.96C187.881 48.176 191.69 46.784 195.402 46.784C197.722 46.784 199.675 47.364 201.26 48.524C202.845 49.684 203.638 51.3467 203.638 53.512C203.638 55.02 203.232 56.4893 202.42 57.92C201.647 59.312 200.661 60.24 199.462 60.704C199.385 60.704 199.307 60.6847 199.23 60.646C199.153 60.5687 199.133 60.5107 199.172 60.472C199.829 59.544 200.429 58.5773 200.97 57.572C201.511 56.528 201.782 55.3873 201.782 54.15C201.782 52.9513 201.415 51.9073 200.68 51.018C199.984 50.09 199.075 49.3747 197.954 48.872C196.871 48.3307 195.75 48.06 194.59 48.06C193.005 48.06 191.419 48.4273 189.834 49.162C188.249 49.8967 186.663 50.8633 185.078 52.062C181.675 54.73 179.355 58.152 178.118 62.328C177.538 64.184 177.248 65.982 177.248 67.722C177.248 71.0473 178.389 73.7347 180.67 75.784C181.598 76.596 182.584 77.2147 183.628 77.64C184.672 78.104 185.793 78.336 186.992 78.336C190.897 78.336 195.151 76.9053 199.752 74.044C204.392 71.2213 209.303 66.9293 214.484 61.168L209.206 61.284C207.543 61.2453 206.712 60.8973 206.712 60.24C206.712 59.4667 207.524 58.6547 209.148 57.804C209.805 57.572 210.25 57.456 210.482 57.456C210.83 57.456 211.043 57.7267 211.12 58.268C211.197 58.7707 211.371 59.0607 211.642 59.138C212.299 59.1767 212.995 59.2153 213.73 59.254C214.465 59.254 215.257 59.254 216.108 59.254C219.743 54.8073 223.029 51.0953 225.968 48.118C228.945 45.1407 231.71 42.7433 234.262 40.926C236.853 39.1087 239.347 37.7553 241.744 36.866C242.092 36.7113 242.517 36.634 243.02 36.634C244.335 36.634 244.992 37.04 244.992 37.852C244.992 38.2 244.799 38.5673 244.412 38.954C239.231 44.4447 235.441 50.9987 233.044 58.616C233.624 58.5773 234.165 58.5387 234.668 58.5C235.209 58.4613 235.712 58.4033 236.176 58.326C236.369 58.2873 236.524 58.268 236.64 58.268C236.795 58.268 236.949 58.268 237.104 58.268C237.8 58.268 238.148 58.3647 238.148 58.558C238.148 59.1767 236.331 59.6213 232.696 59.892C231.729 63.0627 231.246 66.0207 231.246 68.766C231.246 71.318 231.633 72.8067 232.406 73.232C232.483 73.2707 232.561 73.29 232.638 73.29C232.715 73.3287 232.793 73.348 232.87 73.348C233.218 73.348 233.566 73.174 233.914 72.826C234.301 72.4393 234.494 72.246 234.494 72.246C234.571 72.3233 234.61 72.4587 234.61 72.652C234.61 73.4253 234.359 74.16 233.856 74.856C233.392 75.552 232.831 75.9 232.174 75.9C231.749 75.9 231.323 75.726 230.898 75.378C229.699 74.4113 229.1 72.5747 229.1 69.868C229.1 69.5587 229.1 69.2493 229.1 68.94C229.1 68.592 229.119 68.2633 229.158 67.954C229.235 66.8327 229.371 65.6147 229.564 64.3C229.796 62.9853 230.086 61.5547 230.434 60.008L216.398 60.994C210.985 67.2193 205.861 71.9173 201.028 75.088C196.195 78.2973 191.613 79.902 187.282 79.902ZM217.964 59.254C219.433 59.2153 221.231 59.1573 223.358 59.08C225.523 59.0027 227.979 58.906 230.724 58.79C232.541 52.526 234.397 47.654 236.292 44.174C236.601 43.5553 236.93 42.956 237.278 42.376C237.665 41.796 238.051 41.2353 238.438 40.694C237.471 41.0033 236.389 41.5447 235.19 42.318C233.991 43.0527 232.851 43.8453 231.768 44.696C230.685 45.5467 229.796 46.2813 229.1 46.9C227.089 48.7173 225.175 50.6893 223.358 52.816C221.579 54.904 219.781 57.05 217.964 59.254ZM250.945 73.58C250.094 73.6573 249.282 73.4447 248.509 72.942C247.736 72.4007 247.349 71.8013 247.349 71.144C247.349 69.9453 248.49 67.6447 250.771 64.242C253.284 60.4913 254.541 58.326 254.541 57.746C254.541 57.398 254.367 57.2047 254.019 57.166C252.898 57.2433 251.158 58.3647 248.799 60.53C245.435 63.662 242.284 67.9153 239.345 73.29C239.268 73.3673 239.055 73.406 238.707 73.406C237.044 73.406 236.29 73.174 236.445 72.71C236.87 71.5887 237.605 69.9067 238.649 67.664C239.732 65.4213 241.124 62.5987 242.825 59.196C243.985 56.9147 245.164 55.774 246.363 55.774C246.75 55.774 247.001 55.8707 247.117 56.064C247.194 56.18 246.382 57.8427 244.681 61.052C243.869 62.5987 243.231 63.836 242.767 64.764C242.303 65.6533 241.974 66.2333 241.781 66.504C242.438 65.8467 243.212 65.0347 244.101 64.068C245.029 63.1013 246.092 61.98 247.291 60.704C249.186 58.5773 251.274 56.992 253.555 55.948C254.096 55.716 254.715 55.6 255.411 55.6C256.996 55.6 257.789 56.18 257.789 57.34C257.789 58.0747 257.422 58.9447 256.687 59.95C252.511 65.7887 250.423 69.7133 250.423 71.724C250.423 72.1493 250.558 72.42 250.829 72.536C251.448 72.8067 252.975 72.1687 255.411 70.622C258.272 68.766 260.708 66.4653 262.719 63.72C263.144 63.14 263.531 62.85 263.879 62.85C263.995 62.85 264.053 62.8887 264.053 62.966C264.053 63.1593 263.879 63.5267 263.531 64.068C261.83 66.736 259.471 69.0947 256.455 71.144C253.748 72.9227 251.912 73.7347 250.945 73.58ZM264.919 73.986C261.942 73.3287 260.453 71.9753 260.453 69.926C260.453 69.346 260.55 68.6693 260.743 67.896C260.936 67.084 261.246 66.1947 261.671 65.228L266.601 54.15C266.021 54.2273 265.383 54.3047 264.687 54.382C263.991 54.4593 263.218 54.5367 262.367 54.614C262.212 54.614 262.135 54.4787 262.135 54.208C262.135 53.6667 262.232 53.3573 262.425 53.28L267.297 52.584L271.067 44.928C271.415 44.232 272.498 43.884 274.315 43.884C275.166 43.884 275.533 43.9807 275.417 44.174C274.566 45.5273 273.696 46.9 272.807 48.292C271.956 49.6453 271.106 50.9987 270.255 52.352C270.371 52.3133 270.622 52.2747 271.009 52.236C271.396 52.1973 271.898 52.1587 272.517 52.12C272.981 52.0813 273.426 52.062 273.851 52.062C274.276 52.0233 274.682 52.004 275.069 52.004C276.693 52.004 277.466 52.0813 277.389 52.236C277.118 52.5067 274.489 53.0287 269.501 53.802C265.286 61.7673 263.179 67.3933 263.179 70.68C263.179 71.8787 263.527 72.594 264.223 72.826C264.764 72.9807 266.137 72.2653 268.341 70.68C269.617 69.752 270.777 68.7467 271.821 67.664C272.865 66.5427 273.812 65.3633 274.663 64.126C274.934 63.7393 275.185 63.546 275.417 63.546C275.572 63.546 275.649 63.6233 275.649 63.778C275.649 63.9327 275.552 64.1647 275.359 64.474C273.89 66.8327 271.937 69.056 269.501 71.144C267.142 73.1933 265.615 74.1407 264.919 73.986ZM277.714 73.638C274.892 73.638 273.48 71.898 273.48 68.418C273.48 64.938 274.872 61.6127 277.656 58.442C277.695 58.4033 277.676 58.268 277.598 58.036C277.521 57.7653 277.482 57.572 277.482 57.456C277.482 57.224 277.56 57.05 277.714 56.934C279.068 55.8513 280.653 55.31 282.47 55.31C282.973 55.31 283.379 55.4067 283.688 55.6C284.075 55.7547 284.442 55.9093 284.79 56.064C285.138 56.2187 285.467 56.3927 285.776 56.586C287.246 57.4753 288.27 58.4033 288.85 59.37C289.817 59.3313 290.629 59.2927 291.286 59.254C291.944 59.2153 292.446 59.1767 292.794 59.138H293.026C293.374 59.138 293.548 59.2733 293.548 59.544C293.548 59.6213 293.471 59.6793 293.316 59.718C292.891 59.7953 292.33 59.892 291.634 60.008C290.977 60.124 290.165 60.24 289.198 60.356C289.314 60.6267 289.372 60.936 289.372 61.284C289.372 61.5547 289.353 61.748 289.314 61.864C288.734 64.996 287.207 67.7413 284.732 70.1C282.335 72.4587 279.996 73.638 277.714 73.638ZM287.458 59.37C286.84 58.4033 285.622 57.92 283.804 57.92C282.412 57.92 281.504 58.0747 281.078 58.384C280.962 58.4227 280.846 58.5 280.73 58.616C280.614 58.732 280.479 58.8673 280.324 59.022C282.49 59.2927 284.868 59.4087 287.458 59.37ZM277.888 72.71C279.59 72.71 281.542 71.492 283.746 69.056C285.989 66.62 287.323 64.2613 287.748 61.98C287.787 61.7867 287.806 61.632 287.806 61.516C287.845 61.3613 287.864 61.226 287.864 61.11C287.864 60.878 287.826 60.646 287.748 60.414C287.014 60.4527 286.26 60.472 285.486 60.472C284.713 60.472 283.94 60.472 283.166 60.472C282.393 60.472 281.678 60.472 281.02 60.472C280.402 60.472 279.841 60.4527 279.338 60.414C277.792 62.502 276.825 64.184 276.438 65.46C275.974 66.8907 275.742 68.2633 275.742 69.578C275.742 71.666 276.458 72.71 277.888 72.71ZM304.074 73.58C303.223 73.6573 302.411 73.4447 301.638 72.942C300.865 72.4007 300.478 71.8013 300.478 71.144C300.478 69.9453 301.619 67.6447 303.9 64.242C306.413 60.4913 307.67 58.326 307.67 57.746C307.67 57.398 307.496 57.2047 307.148 57.166C306.027 57.2433 304.287 58.3647 301.928 60.53C298.564 63.662 295.413 67.9153 292.474 73.29C292.397 73.3673 292.184 73.406 291.836 73.406C290.173 73.406 289.419 73.174 289.574 72.71C289.999 71.5887 290.734 69.9067 291.778 67.664C292.861 65.4213 294.253 62.5987 295.954 59.196C297.114 56.9147 298.293 55.774 299.492 55.774C299.879 55.774 300.13 55.8707 300.246 56.064C300.323 56.18 299.511 57.8427 297.81 61.052C296.998 62.5987 296.36 63.836 295.896 64.764C295.432 65.6533 295.103 66.2333 294.91 66.504C295.567 65.8467 296.341 65.0347 297.23 64.068C298.158 63.1013 299.221 61.98 300.42 60.704C302.315 58.5773 304.403 56.992 306.684 55.948C307.225 55.716 307.844 55.6 308.54 55.6C310.125 55.6 310.918 56.18 310.918 57.34C310.918 58.0747 310.551 58.9447 309.816 59.95C305.64 65.7887 303.552 69.7133 303.552 71.724C303.552 72.1493 303.687 72.42 303.958 72.536C304.577 72.8067 306.104 72.1687 308.54 70.622C311.401 68.766 313.837 66.4653 315.848 63.72C316.273 63.14 316.66 62.85 317.008 62.85C317.124 62.85 317.182 62.8887 317.182 62.966C317.182 63.1593 317.008 63.5267 316.66 64.068C314.959 66.736 312.6 69.0947 309.584 71.144C306.877 72.9227 305.041 73.7347 304.074 73.58ZM333.501 77.64C329.596 77.64 326.889 76.7507 325.381 74.972C324.569 74.044 324.163 73 324.163 71.84C324.163 69.056 326.251 66.0207 330.427 62.734C331.78 61.6513 333.076 61.11 334.313 61.11C334.622 61.11 334.777 61.168 334.777 61.284C334.777 61.5547 334.294 61.8833 333.327 62.27C331.664 62.966 330.234 64.242 329.035 66.098C327.798 67.9927 327.179 69.7907 327.179 71.492C327.179 74.624 329.654 76.19 334.603 76.19C337.658 76.19 340.364 75.726 342.723 74.798C347.904 72.7873 352.042 70.1773 355.135 66.968C357.842 64.2227 359.195 61.5933 359.195 59.08C359.195 56.0253 357.339 54.498 353.627 54.498C347.75 54.498 343.38 53.7633 340.519 52.294C338.16 51.0953 336.981 49.51 336.981 47.538C336.981 44.1353 339.552 41.3127 344.695 39.07C348.871 37.1753 352.854 36.228 356.643 36.228C359.736 36.228 362.172 36.866 363.951 38.142C364.415 38.4127 364.647 38.7993 364.647 39.302C364.647 40.0367 364.183 40.7907 363.255 41.564C362.366 42.3373 361.708 42.6853 361.283 42.608C361.206 42.608 361.341 42.3567 361.689 41.854C362.192 41.2353 362.443 40.6747 362.443 40.172C362.443 39.708 362.269 39.302 361.921 38.954C360.877 37.8327 358.963 37.272 356.179 37.272C353.086 37.272 349.915 37.9487 346.667 39.302C343.264 40.7713 341.196 42.492 340.461 44.464C340.074 45.4693 339.881 46.378 339.881 47.19C339.881 50.6313 344.695 52.352 354.323 52.352C360.123 52.352 363.023 54.092 363.023 57.572C363.023 60.5107 361.148 63.8553 357.397 67.606C353.569 71.3567 349.432 74.0053 344.985 75.552C341.002 76.944 337.174 77.64 333.501 77.64ZM376.191 73.638C375.418 73.638 374.703 73.3867 374.045 72.884C373.427 72.3813 373.059 71.898 372.943 71.434C372.827 70.8927 373.543 68.9593 375.089 65.634L373.755 67.548C373.175 68.3987 372.595 69.1527 372.015 69.81C371.435 70.4673 370.894 71.0473 370.391 71.55C368.922 72.942 367.685 73.522 366.679 73.29C364.359 72.7487 363.199 71.434 363.199 69.346C363.199 67.6833 363.992 65.5567 365.577 62.966C366.08 62.1927 366.718 61.4193 367.491 60.646C368.265 59.8727 369.154 59.1187 370.159 58.384C372.75 56.4893 375.244 55.542 377.641 55.542C379.111 55.542 380.503 55.9287 381.817 56.702C382.243 57.0113 382.455 57.34 382.455 57.688C382.455 57.9587 382.378 58.094 382.223 58.094C382.185 58.094 382.146 58.0747 382.107 58.036C381.295 57.1467 380.213 56.702 378.859 56.702C377.274 56.702 375.553 57.3013 373.697 58.5C371.841 59.6987 370.179 61.3033 368.709 63.314C366.621 66.214 365.577 68.5727 365.577 70.39C365.577 71.434 365.945 72.0913 366.679 72.362C367.607 72.7487 369.579 71.028 372.595 67.2C373.833 65.692 374.857 64.3387 375.669 63.14C376.52 61.9413 377.197 60.9167 377.699 60.066C377.931 59.6407 378.357 59.428 378.975 59.428C380.135 59.428 380.715 59.776 380.715 60.472C380.715 60.588 380.696 60.6653 380.657 60.704C377.293 66.04 375.611 69.6553 375.611 71.55C375.611 72.014 375.747 72.2653 376.017 72.304C376.829 72.536 378.183 71.9367 380.077 70.506C382.359 68.8047 384.505 66.5427 386.515 63.72C386.941 63.14 387.327 62.85 387.675 62.85C387.791 62.85 387.849 62.8887 387.849 62.966C387.849 63.1593 387.675 63.5267 387.327 64.068C386.515 65.344 385.607 66.5427 384.601 67.664C383.635 68.7853 382.552 69.8293 381.353 70.796C379.652 72.2267 378.26 73.116 377.177 73.464C376.907 73.58 376.578 73.638 376.191 73.638ZM387.696 73.696C387.464 73.7733 386.516 73.2707 384.854 72.188C384.66 71.9947 384.564 71.6273 384.564 71.086C384.564 68.534 385.666 64.2807 387.87 58.326C388.411 56.818 389.146 56.064 390.074 56.064C390.538 56.064 390.944 56.2767 391.292 56.702C391.678 57.0887 391.814 57.398 391.698 57.63C391.272 58.5193 390.808 59.544 390.306 60.704C389.842 61.8253 389.339 63.082 388.798 64.474C387.483 67.838 386.826 70.158 386.826 71.434C386.826 71.9753 387 72.246 387.348 72.246C387.502 72.246 387.657 72.188 387.812 72.072C388.43 71.6853 389.339 70.8733 390.538 69.636C391.736 68.3987 393.225 66.7553 395.004 64.706C398.87 60.2593 401.364 56.934 402.486 54.73C403.027 53.7247 403.588 53.222 404.168 53.222C404.67 53.222 404.922 53.5313 404.922 54.15C404.922 54.73 404.612 55.3873 403.994 56.122C402.563 57.8233 401.016 59.6213 399.354 61.516C397.73 63.372 396.009 65.3247 394.192 67.374C390.132 71.7433 387.966 73.8507 387.696 73.696ZM407.732 73.464C406.92 73.464 406.089 73.2707 405.238 72.884C404.426 72.4973 403.73 71.9173 403.15 71.144C402.57 70.332 402.28 69.3653 402.28 68.244C402.28 66.6973 402.86 64.938 404.02 62.966C405.18 60.994 406.707 59.254 408.602 57.746C409.801 56.7793 410.806 56.122 411.618 55.774C412.778 55.2713 413.88 55.02 414.924 55.02C416.239 55.02 417.263 55.4453 417.998 56.296C418.385 56.6827 418.578 57.0887 418.578 57.514C418.578 58.21 418.249 58.558 417.592 58.558C417.128 58.558 416.78 58.268 416.548 57.688C416.277 56.876 415.697 56.47 414.808 56.47C413.725 56.47 412.507 57.0693 411.154 58.268C409.646 59.4667 408.273 61.11 407.036 63.198C405.683 65.4407 405.006 67.4127 405.006 69.114C405.006 70.7767 405.509 71.8207 406.514 72.246C406.862 72.4007 407.307 72.478 407.848 72.478C409.704 72.478 411.811 71.7047 414.17 70.158C416.761 68.4953 418.984 66.3493 420.84 63.72C421.265 63.14 421.652 62.85 422 62.85C422.116 62.85 422.174 62.8887 422.174 62.966C422.174 63.1593 422 63.5267 421.652 64.068C419.873 66.8133 417.379 69.172 414.17 71.144C412.701 72.0333 411.521 72.652 410.632 73C409.781 73.3093 408.815 73.464 407.732 73.464ZM431.119 73.58C430.268 73.6573 429.456 73.4447 428.683 72.942C427.91 72.4007 427.523 71.8013 427.523 71.144C427.523 69.9453 428.664 67.6447 430.945 64.242C433.458 60.4527 434.715 58.268 434.715 57.688C434.715 57.34 434.522 57.166 434.135 57.166C433.13 57.166 431.196 58.6547 428.335 61.632C426.634 63.3333 425.029 65.17 423.521 67.142C422.052 69.0753 420.66 71.1247 419.345 73.29C419.268 73.3673 419.055 73.406 418.707 73.406C417.006 73.406 416.232 73.174 416.387 72.71C417.044 70.9313 417.876 68.94 418.881 66.736C419.886 64.532 421.085 62.0767 422.477 59.37C427.078 50.4767 430.21 45.392 431.873 44.116C432.337 43.768 432.975 43.594 433.787 43.594C435.14 43.594 435.817 43.8647 435.817 44.406C435.817 44.522 435.701 44.6767 435.469 44.87C430.404 48.6207 425.918 55.6773 422.013 66.04C422.052 66.0013 422.245 65.8273 422.593 65.518C422.98 65.17 423.521 64.6673 424.217 64.01C424.952 63.3527 425.57 62.7533 426.073 62.212C426.614 61.632 427.078 61.1293 427.465 60.704C429.36 58.5773 431.448 56.992 433.729 55.948C434.27 55.716 434.889 55.6 435.585 55.6C437.17 55.6 437.963 56.18 437.963 57.34C437.963 58.0747 437.596 58.9447 436.861 59.95C432.685 65.7887 430.597 69.7133 430.597 71.724C430.597 72.1493 430.732 72.42 431.003 72.536C431.622 72.8067 433.149 72.1687 435.585 70.622C438.446 68.766 440.882 66.4653 442.893 63.72C443.318 63.14 443.705 62.85 444.053 62.85C444.169 62.85 444.227 62.8887 444.227 62.966C444.227 63.1593 444.053 63.5267 443.705 64.068C442.004 66.736 439.645 69.0947 436.629 71.144C433.922 72.9227 432.086 73.7347 431.119 73.58ZM444.328 73.464C443.207 73.464 442.221 73.1933 441.37 72.652C440.249 71.8787 439.688 70.7573 439.688 69.288C439.688 67.7027 440.365 65.7693 441.718 63.488C443.535 60.5107 446.203 57.9007 449.722 55.658C450.611 55.078 451.501 54.788 452.39 54.788C453.55 54.788 454.381 55.1553 454.884 55.89C455.193 56.3153 455.348 56.7987 455.348 57.34C455.348 58.964 454.033 60.7427 451.404 62.676C450.631 63.2173 449.799 63.72 448.91 64.184C448.059 64.6093 447.131 64.9187 446.126 65.112L443.632 65.634C442.704 67.2967 442.24 68.6887 442.24 69.81C442.24 71.3567 443.149 72.13 444.966 72.13C446.397 72.13 448.137 71.5307 450.186 70.332C452.931 68.7467 455.29 66.5427 457.262 63.72C457.571 63.256 457.861 63.024 458.132 63.024C458.248 63.024 458.306 63.1013 458.306 63.256C458.306 63.4493 458.171 63.7393 457.9 64.126C454.149 69.7713 449.915 72.8647 445.198 73.406C445.043 73.4447 444.889 73.464 444.734 73.464C444.618 73.464 444.483 73.464 444.328 73.464ZM444.328 64.648C445.411 64.648 446.803 64.1647 448.504 63.198C450.901 61.8447 452.583 60.1047 453.55 57.978C453.821 57.4367 453.956 56.992 453.956 56.644C453.956 56.296 453.821 56.122 453.55 56.122C453.047 56.122 452.023 56.7407 450.476 57.978C449.355 58.9447 448.253 59.9887 447.17 61.11C446.126 62.1927 445.121 63.3527 444.154 64.59C444.115 64.6287 444.173 64.648 444.328 64.648ZM468.105 73.58C467.255 73.6573 466.443 73.4447 465.669 72.942C464.896 72.4007 464.509 71.8013 464.509 71.144C464.509 69.9453 465.65 67.6447 467.931 64.242C470.445 60.4913 471.701 58.326 471.701 57.746C471.701 57.398 471.527 57.2047 471.179 57.166C470.058 57.2433 468.318 58.3647 465.959 60.53C462.595 63.662 459.444 67.9153 456.505 73.29C456.428 73.3673 456.215 73.406 455.867 73.406C454.205 73.406 453.451 73.174 453.605 72.71C454.031 71.5887 454.765 69.9067 455.809 67.664C456.892 65.4213 458.284 62.5987 459.985 59.196C461.145 56.9147 462.325 55.774 463.523 55.774C463.91 55.774 464.161 55.8707 464.277 56.064C464.355 56.18 463.543 57.8427 461.841 61.052C461.029 62.5987 460.391 63.836 459.927 64.764C459.463 65.6533 459.135 66.2333 458.941 66.504C459.599 65.8467 460.372 65.0347 461.261 64.068C462.189 63.1013 463.253 61.98 464.451 60.704C466.346 58.5773 468.434 56.992 470.715 55.948C471.257 55.716 471.875 55.6 472.571 55.6C474.157 55.6 474.949 56.18 474.949 57.34C474.949 58.0747 474.582 58.9447 473.847 59.95C469.671 65.7887 467.583 69.7133 467.583 71.724C467.583 72.1493 467.719 72.42 467.989 72.536C468.608 72.8067 470.135 72.1687 472.571 70.622C475.433 68.766 477.869 66.4653 479.879 63.72C480.305 63.14 480.691 62.85 481.039 62.85C481.155 62.85 481.213 62.8887 481.213 62.966C481.213 63.1593 481.039 63.5267 480.691 64.068C478.99 66.736 476.631 69.0947 473.615 71.144C470.909 72.9227 469.072 73.7347 468.105 73.58ZM493.447 77.988C492.403 77.988 491.398 77.6207 490.431 76.886C487.531 74.6047 485.289 70.332 483.703 64.068C481.345 66.7747 479.141 69.8487 477.091 73.29C477.014 73.3673 476.801 73.406 476.453 73.406C474.752 73.406 473.979 73.174 474.133 72.71C474.907 70.622 475.796 68.4373 476.801 66.156C477.845 63.836 479.005 61.4387 480.281 58.964C484.535 50.6507 487.763 45.682 489.967 44.058C490.431 43.71 491.069 43.536 491.881 43.536C493.235 43.536 493.911 43.8067 493.911 44.348C493.911 44.464 493.795 44.6187 493.563 44.812C488.111 48.872 483.51 55.948 479.759 66.04L483.355 62.56C483.201 62.0187 483.065 61.4967 482.949 60.994C482.872 60.4913 482.833 60.008 482.833 59.544C482.833 59.1573 482.988 58.8287 483.297 58.558C483.607 58.2487 483.935 58.094 484.283 58.094C484.554 58.094 484.786 58.2487 484.979 58.558C485.173 58.906 485.695 59.1573 486.545 59.312C487.744 58.1907 488.827 57.2627 489.793 56.528C490.76 55.7547 491.63 55.1747 492.403 54.788C493.757 54.092 494.82 53.744 495.593 53.744C496.676 53.744 497.217 54.4207 497.217 55.774C497.217 56.8953 496.56 57.92 495.245 58.848C493.931 59.776 492.384 60.3947 490.605 60.704C489.987 60.82 489.291 60.878 488.517 60.878C488.247 60.878 487.976 60.878 487.705 60.878C487.473 60.8393 487.203 60.8007 486.893 60.762L486.139 61.458C486.449 63.2753 486.739 64.8607 487.009 66.214C487.28 67.5287 487.551 68.6113 487.821 69.462C488.827 72.7873 490.141 75.0687 491.765 76.306C492.384 76.8087 493.099 77.06 493.911 77.06C495.497 77.06 496.599 76.422 497.217 75.146C497.372 74.7593 497.585 74.5273 497.855 74.45C498.087 74.334 498.203 74.392 498.203 74.624C498.203 74.7787 498.145 74.9527 498.029 75.146C497.063 77.0407 495.535 77.988 493.447 77.988ZM488.343 59.486C488.73 59.486 489.117 59.428 489.503 59.312C490.161 59.1187 490.818 58.848 491.475 58.5C492.133 58.152 492.79 57.7653 493.447 57.34C494.762 56.4893 495.419 55.8513 495.419 55.426C495.419 55.31 495.361 55.252 495.245 55.252C494.395 55.252 492.152 56.6053 488.517 59.312L488.343 59.486ZM498.613 73.638C495.79 73.638 494.379 71.898 494.379 68.418C494.379 64.938 495.771 61.6127 498.555 58.442C498.594 58.4033 498.574 58.268 498.497 58.036C498.42 57.7653 498.381 57.572 498.381 57.456C498.381 57.224 498.458 57.05 498.613 56.934C499.966 55.8513 501.552 55.31 503.369 55.31C503.872 55.31 504.278 55.4067 504.587 55.6C504.974 55.7547 505.341 55.9093 505.689 56.064C506.037 56.2187 506.366 56.3927 506.675 56.586C508.144 57.4753 509.169 58.4033 509.749 59.37C510.716 59.3313 511.528 59.2927 512.185 59.254C512.842 59.2153 513.345 59.1767 513.693 59.138H513.925C514.273 59.138 514.447 59.2733 514.447 59.544C514.447 59.6213 514.37 59.6793 514.215 59.718C513.79 59.7953 513.229 59.892 512.533 60.008C511.876 60.124 511.064 60.24 510.097 60.356C510.213 60.6267 510.271 60.936 510.271 61.284C510.271 61.5547 510.252 61.748 510.213 61.864C509.633 64.996 508.106 67.7413 505.631 70.1C503.234 72.4587 500.894 73.638 498.613 73.638ZM508.357 59.37C507.738 58.4033 506.52 57.92 504.703 57.92C503.311 57.92 502.402 58.0747 501.977 58.384C501.861 58.4227 501.745 58.5 501.629 58.616C501.513 58.732 501.378 58.8673 501.223 59.022C503.388 59.2927 505.766 59.4087 508.357 59.37ZM498.787 72.71C500.488 72.71 502.441 71.492 504.645 69.056C506.888 66.62 508.222 64.2613 508.647 61.98C508.686 61.7867 508.705 61.632 508.705 61.516C508.744 61.3613 508.763 61.226 508.763 61.11C508.763 60.878 508.724 60.646 508.647 60.414C507.912 60.4527 507.158 60.472 506.385 60.472C505.612 60.472 504.838 60.472 504.065 60.472C503.292 60.472 502.576 60.472 501.919 60.472C501.3 60.472 500.74 60.4527 500.237 60.414C498.69 62.502 497.724 64.184 497.337 65.46C496.873 66.8907 496.641 68.2633 496.641 69.578C496.641 71.666 497.356 72.71 498.787 72.71Z" fill="white"/>
<path d="M182.604 118.052C179.94 118.052 177.912 117.32 176.52 115.856C175.464 114.728 174.936 113.396 174.936 111.86C174.936 111.332 175.008 110.876 175.152 110.492C175.776 109.004 177.144 107.9 179.256 107.18C180.528 106.748 181.608 106.532 182.496 106.532C182.616 106.532 182.736 106.544 182.856 106.568C183 106.568 183.12 106.58 183.216 106.604C183.576 106.628 183.756 106.712 183.756 106.856C183.756 107.096 183.384 107.228 182.64 107.252C181.056 107.372 179.76 107.756 178.752 108.404C177.504 109.22 176.88 110.348 176.88 111.788C176.88 113.084 177.372 114.248 178.356 115.28C179.556 116.504 181.26 117.116 183.468 117.116C184.188 117.116 184.956 117.044 185.772 116.9C190.164 116.18 194.124 112.712 197.652 106.496L187.5 107.288C187.212 107.312 186.9 107.216 186.564 107C186.252 106.784 186.096 106.556 186.096 106.316C186.096 105.812 186.78 105.44 188.148 105.2C188.316 105.176 188.46 105.164 188.58 105.164C188.7 105.14 188.808 105.128 188.904 105.128C189.12 105.128 189.228 105.176 189.228 105.272V105.416C189.228 105.536 189.372 105.596 189.66 105.596C191.868 105.524 193.392 105.488 194.232 105.488C194.472 105.488 194.928 105.476 195.6 105.452C196.272 105.428 197.16 105.392 198.264 105.344C199.656 102.656 200.664 100.088 201.288 97.64C200.52 97.304 199.5 96.896 198.228 96.416C196.98 95.912 195.48 95.324 193.728 94.652C189.312 93.068 185.496 92.276 182.28 92.276C179.208 92.276 177.252 93.092 176.412 94.724C176.34 94.892 176.304 95.06 176.304 95.228C176.304 95.636 176.592 96.08 177.168 96.56L178.032 97.244C178.032 97.268 177.972 97.304 177.852 97.352C177.804 97.352 177.744 97.364 177.672 97.388C177.624 97.388 177.564 97.388 177.492 97.388C176.868 97.388 176.292 97.148 175.764 96.668C175.116 96.092 174.792 95.432 174.792 94.688C174.792 93.488 175.392 92.504 176.592 91.736C177.792 90.968 179.184 90.584 180.768 90.584C183.816 90.584 187.44 91.304 191.64 92.744C192.264 92.96 193.392 93.392 195.024 94.04C196.656 94.688 198.816 95.564 201.504 96.668C201.696 95.828 201.792 95.156 201.792 94.652C201.792 93.98 201.648 93.596 201.36 93.5C201.312 93.452 201.288 93.416 201.288 93.392C201.288 93.032 201.648 92.852 202.368 92.852C203.352 92.852 203.844 93.392 203.844 94.472C203.844 95.264 203.688 96.236 203.376 97.388C205.8 98.348 207.636 98.828 208.884 98.828C209.268 98.828 209.58 98.792 209.82 98.72C210.204 98.624 210.48 98.456 210.648 98.216C210.816 97.976 210.912 97.856 210.936 97.856C211.056 97.856 211.116 97.928 211.116 98.072C211.116 98.432 210.864 98.804 210.36 99.188C209.856 99.572 209.232 99.764 208.488 99.764C207.336 99.764 205.536 99.284 203.088 98.324C202.704 99.5 202.26 100.676 201.756 101.852C201.252 103.004 200.688 104.144 200.064 105.272C200.28 105.272 200.484 105.272 200.676 105.272C200.892 105.248 201.096 105.236 201.288 105.236C203.424 105.236 204.864 105.5 205.608 106.028C205.896 106.196 206.04 106.328 206.04 106.424C206.04 106.472 205.992 106.496 205.896 106.496C205.896 106.496 205.728 106.472 205.392 106.424C205.08 106.376 204.588 106.304 203.916 106.208C203.58 106.16 203.256 106.124 202.944 106.1C202.632 106.052 202.344 106.028 202.08 106.028C201.912 106.028 201.756 106.04 201.612 106.064C201.468 106.064 201.336 106.076 201.216 106.1C200.64 106.22 200.052 106.292 199.452 106.316C195.468 113.036 190.86 116.852 185.628 117.764C185.1 117.86 184.584 117.932 184.08 117.98C183.576 118.028 183.084 118.052 182.604 118.052ZM202.219 116.432C201.883 116.432 201.715 116.324 201.715 116.108C201.715 116.084 201.739 116 201.787 115.856C202.915 113.696 204.247 110.612 205.783 106.604C205.951 106.172 206.239 105.8 206.647 105.488C207.055 105.152 207.403 104.984 207.691 104.984C208.003 104.984 208.135 105.152 208.087 105.488C207.847 105.992 207.559 106.64 207.223 107.432C206.887 108.224 206.491 109.148 206.035 110.204C206.707 109.316 207.703 108.32 209.023 107.216C209.695 106.664 210.271 106.208 210.751 105.848C211.255 105.488 211.675 105.224 212.011 105.056C212.347 104.888 212.719 104.804 213.127 104.804C213.607 104.804 214.015 104.924 214.351 105.164C214.687 105.404 214.855 105.68 214.855 105.992C214.855 106.184 214.759 106.4 214.567 106.64C214.399 106.856 214.219 106.964 214.027 106.964C213.931 106.964 213.727 106.868 213.415 106.676C213.127 106.46 212.815 106.352 212.479 106.352C212.119 106.352 211.699 106.46 211.219 106.676C208.171 108.044 205.543 111.128 203.335 115.928C203.191 116.264 202.819 116.432 202.219 116.432ZM215.523 116.396C213.771 116.396 212.895 115.316 212.895 113.156C212.895 110.996 213.759 108.932 215.487 106.964C215.511 106.94 215.499 106.856 215.451 106.712C215.403 106.544 215.379 106.424 215.379 106.352C215.379 106.208 215.427 106.1 215.523 106.028C216.363 105.356 217.347 105.02 218.475 105.02C218.787 105.02 219.039 105.08 219.231 105.2C219.471 105.296 219.699 105.392 219.915 105.488C220.131 105.584 220.335 105.692 220.527 105.812C221.439 106.364 222.075 106.94 222.435 107.54C223.035 107.516 223.539 107.492 223.947 107.468C224.355 107.444 224.667 107.42 224.883 107.396H225.027C225.243 107.396 225.351 107.48 225.351 107.648C225.351 107.696 225.303 107.732 225.207 107.756C224.943 107.804 224.595 107.864 224.163 107.936C223.755 108.008 223.251 108.08 222.651 108.152C222.723 108.32 222.759 108.512 222.759 108.728C222.759 108.896 222.747 109.016 222.723 109.088C222.363 111.032 221.415 112.736 219.879 114.2C218.391 115.664 216.939 116.396 215.523 116.396ZM221.571 107.54C221.187 106.94 220.431 106.64 219.303 106.64C218.439 106.64 217.875 106.736 217.611 106.928C217.539 106.952 217.467 107 217.395 107.072C217.323 107.144 217.239 107.228 217.143 107.324C218.487 107.492 219.963 107.564 221.571 107.54ZM215.631 115.82C216.687 115.82 217.899 115.064 219.267 113.552C220.659 112.04 221.487 110.576 221.751 109.16C221.775 109.04 221.787 108.944 221.787 108.872C221.811 108.776 221.823 108.692 221.823 108.62C221.823 108.476 221.799 108.332 221.751 108.188C221.295 108.212 220.827 108.224 220.347 108.224C219.867 108.224 219.387 108.224 218.907 108.224C218.427 108.224 217.983 108.224 217.575 108.224C217.191 108.224 216.843 108.212 216.531 108.188C215.571 109.484 214.971 110.528 214.731 111.32C214.443 112.208 214.299 113.06 214.299 113.876C214.299 115.172 214.743 115.82 215.631 115.82ZM231.884 116.36C231.356 116.408 230.852 116.276 230.372 115.964C229.892 115.628 229.652 115.256 229.652 114.848C229.652 114.104 230.36 112.676 231.776 110.564C233.336 108.236 234.116 106.892 234.116 106.532C234.116 106.316 234.008 106.196 233.792 106.172C233.096 106.22 232.016 106.916 230.552 108.26C228.464 110.204 226.508 112.844 224.684 116.18C224.636 116.228 224.504 116.252 224.288 116.252C223.256 116.252 222.788 116.108 222.884 115.82C223.148 115.124 223.604 114.08 224.252 112.688C224.924 111.296 225.788 109.544 226.844 107.432C227.564 106.016 228.296 105.308 229.04 105.308C229.28 105.308 229.436 105.368 229.508 105.488C229.556 105.56 229.052 106.592 227.996 108.584C227.492 109.544 227.096 110.312 226.808 110.888C226.52 111.44 226.316 111.8 226.196 111.968C226.604 111.56 227.084 111.056 227.636 110.456C228.212 109.856 228.872 109.16 229.616 108.368C230.792 107.048 232.088 106.064 233.504 105.416C233.84 105.272 234.224 105.2 234.656 105.2C235.64 105.2 236.132 105.56 236.132 106.28C236.132 106.736 235.904 107.276 235.448 107.9C232.856 111.524 231.56 113.96 231.56 115.208C231.56 115.472 231.644 115.64 231.812 115.712C232.196 115.88 233.144 115.484 234.656 114.524C236.432 113.372 237.944 111.944 239.192 110.24C239.456 109.88 239.696 109.7 239.912 109.7C239.984 109.7 240.02 109.724 240.02 109.772C240.02 109.892 239.912 110.12 239.696 110.456C238.64 112.112 237.176 113.576 235.304 114.848C233.624 115.952 232.484 116.456 231.884 116.36ZM240.558 116.612C238.71 116.204 237.786 115.364 237.786 114.092C237.786 113.732 237.846 113.312 237.966 112.832C238.086 112.328 238.278 111.776 238.542 111.176L241.602 104.3C241.242 104.348 240.846 104.396 240.414 104.444C239.982 104.492 239.502 104.54 238.974 104.588C238.878 104.588 238.83 104.504 238.83 104.336C238.83 104 238.89 103.808 239.01 103.76L242.034 103.328L244.374 98.576C244.59 98.144 245.262 97.928 246.39 97.928C246.918 97.928 247.146 97.988 247.074 98.108C246.546 98.948 246.006 99.8 245.454 100.664C244.926 101.504 244.398 102.344 243.87 103.184C243.942 103.16 244.098 103.136 244.338 103.112C244.578 103.088 244.89 103.064 245.274 103.04C245.562 103.016 245.838 103.004 246.102 103.004C246.366 102.98 246.618 102.968 246.858 102.968C247.866 102.968 248.346 103.016 248.298 103.112C248.13 103.28 246.498 103.604 243.402 104.084C240.786 109.028 239.478 112.52 239.478 114.56C239.478 115.304 239.694 115.748 240.126 115.892C240.462 115.988 241.314 115.544 242.682 114.56C243.474 113.984 244.194 113.36 244.842 112.688C245.49 111.992 246.078 111.26 246.606 110.492C246.774 110.252 246.93 110.132 247.074 110.132C247.17 110.132 247.218 110.18 247.218 110.276C247.218 110.372 247.158 110.516 247.038 110.708C246.126 112.172 244.914 113.552 243.402 114.848C241.938 116.12 240.99 116.708 240.558 116.612ZM247.887 116.288C247.191 116.288 246.579 116.12 246.051 115.784C245.355 115.304 245.007 114.608 245.007 113.696C245.007 112.712 245.427 111.512 246.267 110.096C247.395 108.248 249.051 106.628 251.235 105.236C251.787 104.876 252.339 104.696 252.891 104.696C253.611 104.696 254.127 104.924 254.439 105.38C254.631 105.644 254.727 105.944 254.727 106.28C254.727 107.288 253.911 108.392 252.279 109.592C251.799 109.928 251.283 110.24 250.731 110.528C250.203 110.792 249.627 110.984 249.003 111.104L247.455 111.428C246.879 112.46 246.591 113.324 246.591 114.02C246.591 114.98 247.155 115.46 248.283 115.46C249.171 115.46 250.251 115.088 251.523 114.344C253.227 113.36 254.691 111.992 255.915 110.24C256.107 109.952 256.287 109.808 256.455 109.808C256.527 109.808 256.563 109.856 256.563 109.952C256.563 110.072 256.479 110.252 256.311 110.492C253.983 113.996 251.355 115.916 248.427 116.252C248.331 116.276 248.235 116.288 248.139 116.288C248.067 116.288 247.983 116.288 247.887 116.288ZM247.887 110.816C248.559 110.816 249.423 110.516 250.479 109.916C251.967 109.076 253.011 107.996 253.611 106.676C253.779 106.34 253.863 106.064 253.863 105.848C253.863 105.632 253.779 105.524 253.611 105.524C253.299 105.524 252.663 105.908 251.703 106.676C251.007 107.276 250.323 107.924 249.651 108.62C249.003 109.292 248.379 110.012 247.779 110.78C247.755 110.804 247.791 110.816 247.887 110.816ZM262.646 116.36C262.118 116.408 261.614 116.276 261.134 115.964C260.654 115.628 260.414 115.256 260.414 114.848C260.414 114.104 261.122 112.676 262.538 110.564C264.098 108.236 264.878 106.892 264.878 106.532C264.878 106.316 264.77 106.196 264.554 106.172C263.858 106.22 262.778 106.916 261.314 108.26C259.226 110.204 257.27 112.844 255.446 116.18C255.398 116.228 255.266 116.252 255.05 116.252C254.018 116.252 253.55 116.108 253.646 115.82C253.91 115.124 254.366 114.08 255.014 112.688C255.686 111.296 256.55 109.544 257.606 107.432C258.326 106.016 259.058 105.308 259.802 105.308C260.042 105.308 260.198 105.368 260.27 105.488C260.318 105.56 259.814 106.592 258.758 108.584C258.254 109.544 257.858 110.312 257.57 110.888C257.282 111.44 257.078 111.8 256.958 111.968C257.366 111.56 257.846 111.056 258.398 110.456C258.974 109.856 259.634 109.16 260.378 108.368C261.554 107.048 262.85 106.064 264.266 105.416C264.602 105.272 264.986 105.2 265.418 105.2C266.402 105.2 266.894 105.56 266.894 106.28C266.894 106.736 266.666 107.276 266.21 107.9C263.618 111.524 262.322 113.96 262.322 115.208C262.322 115.472 262.406 115.64 262.574 115.712C262.958 115.88 263.906 115.484 265.418 114.524C267.194 113.372 268.706 111.944 269.954 110.24C270.218 109.88 270.458 109.7 270.674 109.7C270.746 109.7 270.782 109.724 270.782 109.772C270.782 109.892 270.674 110.12 270.458 110.456C269.402 112.112 267.938 113.576 266.066 114.848C264.386 115.952 263.246 116.456 262.646 116.36ZM276.863 116.396C276.407 116.396 275.975 116.276 275.567 116.036C275.183 115.82 274.931 115.58 274.811 115.316C274.739 115.124 274.703 114.872 274.703 114.56C274.703 114.152 274.751 113.684 274.847 113.156C274.943 112.604 275.087 112.016 275.279 111.392C275.111 111.704 274.871 112.064 274.559 112.472C274.271 112.88 273.911 113.36 273.479 113.912C272.183 115.448 271.127 116.216 270.311 116.216C270.191 116.216 270.095 116.204 270.023 116.18C268.583 115.844 267.863 115.028 267.863 113.732C267.863 112.7 268.355 111.38 269.339 109.772C269.963 108.788 270.911 107.84 272.183 106.928C273.815 105.728 275.363 105.128 276.827 105.128C277.379 105.128 277.895 105.212 278.375 105.38L279.455 103.436C280.007 102.452 280.463 101.564 280.823 100.772C281.207 99.98 281.519 99.296 281.759 98.72C281.951 98.288 282.623 98.072 283.775 98.072C284.303 98.072 284.531 98.132 284.459 98.252L279.707 106.136C279.803 106.28 279.827 106.448 279.779 106.64C279.755 106.784 279.695 106.808 279.599 106.712L279.455 106.568L278.987 107.36C277.163 110.456 276.251 112.868 276.251 114.596C276.251 115.268 276.479 115.604 276.935 115.604C277.439 115.604 278.207 115.22 279.239 114.452C280.655 113.396 281.987 111.992 283.235 110.24C283.499 109.88 283.739 109.7 283.955 109.7C284.027 109.7 284.063 109.724 284.063 109.772C284.063 109.892 283.955 110.12 283.739 110.456C282.707 112.04 281.507 113.432 280.139 114.632C279.059 115.568 278.219 116.12 277.619 116.288C277.379 116.36 277.127 116.396 276.863 116.396ZM270.023 115.604C270.599 115.844 271.823 114.776 273.695 112.4C274.415 111.488 275.039 110.672 275.567 109.952C276.095 109.208 276.527 108.548 276.863 107.972C276.959 107.78 277.103 107.516 277.295 107.18C277.511 106.82 277.775 106.4 278.087 105.92C278.015 105.896 277.931 105.884 277.835 105.884C277.763 105.884 277.691 105.884 277.619 105.884C276.635 105.884 275.579 106.256 274.451 107C273.323 107.72 272.267 108.716 271.283 109.988C270.587 110.876 270.083 111.692 269.771 112.436C269.483 113.18 269.339 113.828 269.339 114.38C269.339 115.028 269.567 115.436 270.023 115.604Z" fill="white"/>
</svg>
