<svg width="150" height="150" viewBox="0 0 150 150" fill="none" xmlns="http://www.w3.org/2000/svg">
<g clip-path="url(#clip0_1_3)">
<circle cx="75" cy="75" r="73" stroke="white" stroke-width="4"/>
<path d="M28.19 115.09C23.9367 115.09 20.0867 114.32 16.64 112.78C13.2667 111.24 10.5167 109.15 8.39 106.51C5.09 102.403 3.44 97.3067 3.44 91.22C3.44 86.8933 4.24667 82.97 5.86 79.45C9.08667 71.97 14.44 65.5533 21.92 60.2C29.3267 54.92 36.55 52.28 43.59 52.28C47.99 52.28 51.6933 53.38 54.7 55.58C57.7067 57.78 59.21 60.9333 59.21 65.04C59.21 67.9 58.44 70.6867 56.9 73.4C55.4333 76.04 53.5633 77.8 51.29 78.68C51.1433 78.68 50.9967 78.6433 50.85 78.57C50.7033 78.4233 50.6667 78.3133 50.74 78.24C51.9867 76.48 53.1233 74.6467 54.15 72.74C55.1767 70.76 55.69 68.5967 55.69 66.25C55.69 63.9767 54.9933 61.9967 53.6 60.31C52.28 58.55 50.5567 57.1933 48.43 56.24C46.3767 55.2133 44.25 54.7 42.05 54.7C39.0433 54.7 36.0367 55.3967 33.03 56.79C30.0233 58.1833 27.0167 60.0167 24.01 62.29C17.5567 67.35 13.1567 73.84 10.81 81.76C9.71 85.28 9.16 88.69 9.16 91.99C9.16 98.2967 11.3233 103.393 15.65 107.28C17.41 108.82 19.28 109.993 21.26 110.8C23.24 111.68 25.3667 112.12 27.64 112.12C35.0467 112.12 43.1133 109.407 51.84 103.98C60.64 98.6267 69.9533 90.4867 79.78 79.56L69.77 79.78C66.6167 79.7067 65.04 79.0467 65.04 77.8C65.04 76.3333 66.58 74.7933 69.66 73.18C70.9067 72.74 71.75 72.52 72.19 72.52C72.85 72.52 73.2533 73.0333 73.4 74.06C73.5467 75.0133 73.8767 75.5633 74.39 75.71C75.6367 75.7833 76.9567 75.8567 78.35 75.93C79.7433 75.93 81.2467 75.93 82.86 75.93C89.7533 67.4967 95.9867 60.4567 101.56 54.81C107.207 49.1633 112.45 44.6167 117.29 41.17C122.203 37.7233 126.933 35.1567 131.48 33.47C132.14 33.1767 132.947 33.03 133.9 33.03C136.393 33.03 137.64 33.8 137.64 35.34C137.64 36 137.273 36.6967 136.54 37.43C126.713 47.8433 119.527 60.2733 114.98 74.72C116.08 74.6467 117.107 74.5733 118.06 74.5C119.087 74.4267 120.04 74.3167 120.92 74.17C121.287 74.0967 121.58 74.06 121.8 74.06C122.093 74.06 122.387 74.06 122.68 74.06C124 74.06 124.66 74.2433 124.66 74.61C124.66 75.7833 121.213 76.6267 114.32 77.14C112.487 83.1533 111.57 88.7633 111.57 93.97C111.57 98.81 112.303 101.633 113.77 102.44C113.917 102.513 114.063 102.55 114.21 102.55C114.357 102.623 114.503 102.66 114.65 102.66C115.31 102.66 115.97 102.33 116.63 101.67C117.363 100.937 117.73 100.57 117.73 100.57C117.877 100.717 117.95 100.973 117.95 101.34C117.95 102.807 117.473 104.2 116.52 105.52C115.64 106.84 114.577 107.5 113.33 107.5C112.523 107.5 111.717 107.17 110.91 106.51C108.637 104.677 107.5 101.193 107.5 96.06C107.5 95.4733 107.5 94.8867 107.5 94.3C107.5 93.64 107.537 93.0167 107.61 92.43C107.757 90.3033 108.013 87.9933 108.38 85.5C108.82 83.0067 109.37 80.2933 110.03 77.36L83.41 79.23C73.1433 91.0367 63.4267 99.9467 54.26 105.96C45.0933 112.047 36.4033 115.09 28.19 115.09ZM86.38 75.93C89.1667 75.8567 92.5767 75.7467 96.61 75.6C100.717 75.4533 105.373 75.27 110.58 75.05C114.027 63.17 117.547 53.93 121.14 47.33C121.727 46.1567 122.35 45.02 123.01 43.92C123.743 42.82 124.477 41.7567 125.21 40.73C123.377 41.3167 121.323 42.3433 119.05 43.81C116.777 45.2033 114.613 46.7067 112.56 48.32C110.507 49.9333 108.82 51.3267 107.5 52.5C103.687 55.9467 100.057 59.6867 96.61 63.72C93.2367 67.68 89.8267 71.75 86.38 75.93Z" fill="white"/>
</g>
<defs>
<clipPath id="clip0_1_3">
<rect width="150" height="150" fill="white"/>
</clipPath>
</defs>
</svg>
